<svg aria-hidden="true" xmlns="http://www.w3.org/2000/svg" xmlns:xlink="http://www.w3.org/1999/xlink"><symbol viewBox="0 0 100 100" id="basketball" xmlns="http://www.w3.org/2000/svg">
<path d="M50 87.5C70.7107 87.5 87.5 70.7107 87.5 50C87.5 29.2893 70.7107 12.5 50 12.5C29.2893 12.5 12.5 29.2893 12.5 50C12.5 70.7107 29.2893 87.5 50 87.5Z" stroke-width="3" stroke-linecap="round" stroke-linejoin="round"/>
<path d="M23.4375 23.5166C30.449 30.5464 34.383 40.0722 34.375 50.001C34.383 59.9297 30.449 69.4555 23.4375 76.4854" stroke-width="3" stroke-linecap="round" stroke-linejoin="round"/>
<path d="M76.5632 23.5166C69.5598 30.5516 65.6279 40.0742 65.6279 50.001C65.6279 59.9277 69.5598 69.4503 76.5632 76.4854" stroke-width="3" stroke-linecap="round" stroke-linejoin="round"/>
<path d="M12.5 50H87.5" stroke-width="3" stroke-linecap="round" stroke-linejoin="round"/>
<path d="M50 12.5V87.5" stroke-width="3" stroke-linecap="round" stroke-linejoin="round"/>
</symbol><symbol viewBox="0 0 100 100" id="bookmarks-simple" xmlns="http://www.w3.org/2000/svg">
<path d="M65.625 87.5L43.75 71.875L21.875 87.5V28.125C21.875 27.2962 22.2042 26.5013 22.7903 25.9153C23.3763 25.3292 24.1712 25 25 25H62.5C63.3288 25 64.1237 25.3292 64.7097 25.9153C65.2958 26.5013 65.625 27.2962 65.625 28.125V87.5Z" stroke-width="3" stroke-linecap="round" stroke-linejoin="round"/>
<path d="M34.375 12.5H75C75.8288 12.5 76.6237 12.8292 77.2097 13.4153C77.7958 14.0013 78.125 14.7962 78.125 15.625V75" stroke-width="3" stroke-linecap="round" stroke-linejoin="round"/>
</symbol><symbol viewBox="0 0 100 100" id="camera" xmlns="http://www.w3.org/2000/svg">
<path d="M81.25 81.25H18.75C17.0924 81.25 15.5027 80.5915 14.3306 79.4194C13.1585 78.2473 12.5 76.6576 12.5 75V31.25C12.5 29.5924 13.1585 28.0027 14.3306 26.8306C15.5027 25.6585 17.0924 25 18.75 25H31.25L37.5 15.625H62.5L68.75 25H81.25C82.9076 25 84.4973 25.6585 85.6694 26.8306C86.8415 28.0027 87.5 29.5924 87.5 31.25V75C87.5 76.6576 86.8415 78.2473 85.6694 79.4194C84.4973 80.5915 82.9076 81.25 81.25 81.25Z" stroke-width="3" stroke-linecap="round" stroke-linejoin="round"/>
<path d="M50 65.625C57.7665 65.625 64.0625 59.329 64.0625 51.5625C64.0625 43.796 57.7665 37.5 50 37.5C42.2335 37.5 35.9375 43.796 35.9375 51.5625C35.9375 59.329 42.2335 65.625 50 65.625Z" stroke-width="3" stroke-linecap="round" stroke-linejoin="round"/>
</symbol><symbol viewBox="0 0 32 32" id="discord" xmlns="http://www.w3.org/2000/svg">
<path d="M12 19.5C12.8284 19.5 13.5 18.8284 13.5 18C13.5 17.1716 12.8284 16.5 12 16.5C11.1716 16.5 10.5 17.1716 10.5 18C10.5 18.8284 11.1716 19.5 12 19.5Z"/>
<path d="M20 19.5C20.8284 19.5 21.5 18.8284 21.5 18C21.5 17.1716 20.8284 16.5 20 16.5C19.1716 16.5 18.5 17.1716 18.5 18C18.5 18.8284 19.1716 19.5 20 19.5Z"/>
<path fill-rule="evenodd" clip-rule="evenodd" d="M15.9927 9.99959C13.8249 9.98356 11.6678 10.3055 9.59914 10.9539C9.07213 11.119 8.51101 10.8257 8.34584 10.2987C8.18067 9.77168 8.474 9.21056 9.00101 9.04539C11.2656 8.33563 13.6269 7.98281 16.0001 7.99959C18.3732 7.98281 20.7345 8.33563 22.9991 9.04539C23.5261 9.21056 23.8195 9.77168 23.6543 10.2987C23.4891 10.8257 22.928 11.119 22.401 10.9539C20.3323 10.3055 18.1753 9.98356 16.0075 9.99959H15.9927Z"/>
<path fill-rule="evenodd" clip-rule="evenodd" d="M8.34584 21.7012C8.51101 21.1742 9.07213 20.8809 9.59914 21.046C11.6678 21.6944 13.8249 22.0163 15.9927 22.0003H16.0075C18.1753 22.0163 20.3323 21.6944 22.401 21.046C22.928 20.8809 23.4891 21.1742 23.6543 21.7012C23.8195 22.2282 23.5261 22.7893 22.9991 22.9545C20.7345 23.6643 18.3732 24.0171 16.0001 24.0003C13.6269 24.0171 11.2656 23.6643 9.00101 22.9545C8.474 22.7893 8.18067 22.2282 8.34584 21.7012Z"/>
<path fill-rule="evenodd" clip-rule="evenodd" d="M20.2199 4.81121C20.6504 4.56852 21.1551 4.49267 21.6378 4.59812C22.9554 4.88366 24.2453 5.28424 25.4928 5.79524C25.7736 5.90352 26.0259 6.07496 26.2299 6.29638C26.4362 6.52018 26.5875 6.78885 26.672 7.08115L30.9079 21.2255C31.0183 21.594 31.0209 21.9865 30.9152 22.3563C30.8095 22.7262 30.6 23.0581 30.3116 23.3126L30.3064 23.3171C28.2389 25.1161 25.4376 26.4777 22.2556 27.2577C21.8136 27.3703 21.3462 27.3265 20.9327 27.1336C20.521 26.9414 20.1882 26.6132 19.9903 26.2044L18.482 23.2129C18.2334 22.7197 18.4316 22.1184 18.9248 21.8698C19.4179 21.6211 20.0193 21.8194 20.2679 22.3125L21.7804 25.3125L21.7815 25.3147C24.7194 24.5943 27.2136 23.3571 28.9936 21.8083L29.65 22.5627L28.9884 21.8128C28.9902 21.8113 28.9915 21.8092 28.9921 21.8069C28.9928 21.8046 28.9928 21.8022 28.9921 21.7999L24.756 7.65465C24.7525 7.65325 24.7489 7.65182 24.7454 7.65037C23.6025 7.18149 22.4206 6.81412 21.2132 6.55253L21.211 6.55205C21.208 6.55139 21.2049 6.55186 21.2022 6.55337C21.1998 6.55473 21.1979 6.55684 21.1969 6.55937L20.212 9.53905C20.0386 10.0634 19.473 10.348 18.9486 10.1747C18.4243 10.0013 18.1397 9.43574 18.313 8.91136L19.3034 5.91516C19.4629 5.44707 19.7892 5.0541 20.2199 4.81121Z"/>
<path fill-rule="evenodd" clip-rule="evenodd" d="M10.7977 6.55337C10.795 6.55186 10.7919 6.55139 10.7889 6.55205L10.7867 6.55252C9.57939 6.81412 8.39743 7.18148 7.25453 7.65037C7.251 7.65182 7.24746 7.65324 7.24392 7.65465L3.00794 21.7996C3.00725 21.8019 3.00715 21.8046 3.00781 21.8069C3.0084 21.809 3.00951 21.8108 3.01103 21.8123C4.79072 23.3593 7.28311 24.5949 10.2185 25.3147L10.2195 25.3125L11.732 22.3125C11.9807 21.8194 12.582 21.6211 13.0752 21.8698C13.5683 22.1184 13.7665 22.7197 13.5179 23.2129L12.0097 26.2045C11.8118 26.6132 11.479 26.9414 11.0672 27.1336C10.6537 27.3265 10.1863 27.3703 9.74432 27.2577C6.56239 26.4777 3.76102 25.1161 1.69355 23.3171L1.68837 23.3126C1.3999 23.0581 1.19044 22.7262 1.08476 22.3563C0.979102 21.9865 0.981619 21.5942 1.092 21.2258C1.09203 21.2257 1.09198 21.2259 1.092 21.2258L5.3279 7.08117C5.41243 6.78887 5.56377 6.52019 5.77003 6.29638C5.97408 6.07496 6.2263 5.90352 6.50711 5.79524C7.75497 5.28409 9.04529 4.88344 10.3632 4.59788C10.8456 4.49279 11.3499 4.5687 11.78 4.81121C12.2108 5.05409 12.537 5.44708 12.6965 5.91518L12.6995 5.92385L13.6869 8.91136C13.8603 9.43574 13.5757 10.0013 13.0513 10.1747C12.5269 10.348 11.9613 10.0634 11.788 9.53905L10.8031 6.55937C10.802 6.55684 10.8001 6.55473 10.7977 6.55337Z"/>
<path d="M12 19.5C12.8284 19.5 13.5 18.8284 13.5 18C13.5 17.1716 12.8284 16.5 12 16.5C11.1716 16.5 10.5 17.1716 10.5 18C10.5 18.8284 11.1716 19.5 12 19.5Z"/>
<path d="M20 19.5C20.8284 19.5 21.5 18.8284 21.5 18C21.5 17.1716 20.8284 16.5 20 16.5C19.1716 16.5 18.5 17.1716 18.5 18C18.5 18.8284 19.1716 19.5 20 19.5Z"/>
<path fill-rule="evenodd" clip-rule="evenodd" d="M15.9927 9.99959C13.8249 9.98356 11.6678 10.3055 9.59914 10.9539C9.07213 11.119 8.51101 10.8257 8.34584 10.2987C8.18067 9.77168 8.474 9.21056 9.00101 9.04539C11.2656 8.33563 13.6269 7.98281 16.0001 7.99959C18.3732 7.98281 20.7345 8.33563 22.9991 9.04539C23.5261 9.21056 23.8195 9.77168 23.6543 10.2987C23.4891 10.8257 22.928 11.119 22.401 10.9539C20.3323 10.3055 18.1753 9.98356 16.0075 9.99959H15.9927Z"/>
<path fill-rule="evenodd" clip-rule="evenodd" d="M8.34584 21.7012C8.51101 21.1742 9.07213 20.8809 9.59914 21.046C11.6678 21.6944 13.8249 22.0163 15.9927 22.0003H16.0075C18.1753 22.0163 20.3323 21.6944 22.401 21.046C22.928 20.8809 23.4891 21.1742 23.6543 21.7012C23.8195 22.2282 23.5261 22.7893 22.9991 22.9545C20.7345 23.6643 18.3732 24.0171 16.0001 24.0003C13.6269 24.0171 11.2656 23.6643 9.00101 22.9545C8.474 22.7893 8.18067 22.2282 8.34584 21.7012Z"/>
<path fill-rule="evenodd" clip-rule="evenodd" d="M20.2199 4.81121C20.6504 4.56852 21.1551 4.49267 21.6378 4.59812C22.9554 4.88366 24.2453 5.28424 25.4928 5.79524C25.7736 5.90352 26.0259 6.07496 26.2299 6.29638C26.4362 6.52018 26.5875 6.78885 26.672 7.08115L30.9079 21.2255C31.0183 21.594 31.0209 21.9865 30.9152 22.3563C30.8095 22.7262 30.6 23.0581 30.3116 23.3126L30.3064 23.3171C28.2389 25.1161 25.4376 26.4777 22.2556 27.2577C21.8136 27.3703 21.3462 27.3265 20.9327 27.1336C20.521 26.9414 20.1882 26.6132 19.9903 26.2044L18.482 23.2129C18.2334 22.7197 18.4316 22.1184 18.9248 21.8698C19.4179 21.6211 20.0193 21.8194 20.2679 22.3125L21.7804 25.3125L21.7815 25.3147C24.7194 24.5943 27.2136 23.3571 28.9936 21.8083L29.65 22.5627L28.9884 21.8128C28.9902 21.8113 28.9915 21.8092 28.9921 21.8069C28.9928 21.8046 28.9928 21.8022 28.9921 21.7999L24.756 7.65465C24.7525 7.65325 24.7489 7.65182 24.7454 7.65037C23.6025 7.18149 22.4206 6.81412 21.2132 6.55253L21.211 6.55205C21.208 6.55139 21.2049 6.55186 21.2022 6.55337C21.1998 6.55473 21.1979 6.55684 21.1969 6.55937L20.212 9.53905C20.0386 10.0634 19.473 10.348 18.9486 10.1747C18.4243 10.0013 18.1397 9.43574 18.313 8.91136L19.3034 5.91516C19.4629 5.44707 19.7892 5.0541 20.2199 4.81121Z"/>
<path fill-rule="evenodd" clip-rule="evenodd" d="M10.7977 6.55337C10.795 6.55186 10.7919 6.55139 10.7889 6.55205L10.7867 6.55252C9.57939 6.81412 8.39743 7.18148 7.25453 7.65037C7.251 7.65182 7.24746 7.65324 7.24392 7.65465L3.00794 21.7996C3.00725 21.8019 3.00715 21.8046 3.00781 21.8069C3.0084 21.809 3.00951 21.8108 3.01103 21.8123C4.79072 23.3593 7.28311 24.5949 10.2185 25.3147L10.2195 25.3125L11.732 22.3125C11.9807 21.8194 12.582 21.6211 13.0752 21.8698C13.5683 22.1184 13.7665 22.7197 13.5179 23.2129L12.0097 26.2045C11.8118 26.6132 11.479 26.9414 11.0672 27.1336C10.6537 27.3265 10.1863 27.3703 9.74432 27.2577C6.56239 26.4777 3.76102 25.1161 1.69355 23.3171L1.68837 23.3126C1.3999 23.0581 1.19044 22.7262 1.08476 22.3563C0.979102 21.9865 0.981619 21.5942 1.092 21.2258C1.09203 21.2257 1.09198 21.2259 1.092 21.2258L5.3279 7.08117C5.41243 6.78887 5.56377 6.52019 5.77003 6.29638C5.97408 6.07496 6.2263 5.90352 6.50711 5.79524C7.75497 5.28409 9.04529 4.88344 10.3632 4.59788C10.8456 4.49279 11.3499 4.5687 11.78 4.81121C12.2108 5.05409 12.537 5.44708 12.6965 5.91518L12.6995 5.92385L13.6869 8.91136C13.8603 9.43574 13.5757 10.0013 13.0513 10.1747C12.5269 10.348 11.9613 10.0634 11.788 9.53905L10.8031 6.55937C10.802 6.55684 10.8001 6.55473 10.7977 6.55337Z"/>
</symbol><symbol viewBox="0 0 26 26" id="instagram" xmlns="http://www.w3.org/2000/svg">
<path fill-rule="evenodd" clip-rule="evenodd" d="M7.5 2.5C4.73858 2.5 2.5 4.73858 2.5 7.5V18.5C2.5 21.2614 4.73858 23.5 7.5 23.5H18.5C21.2614 23.5 23.5 21.2614 23.5 18.5V7.5C23.5 4.73858 21.2614 2.5 18.5 2.5H7.5ZM0.5 7.5C0.5 3.63401 3.63401 0.5 7.5 0.5H18.5C22.366 0.5 25.5 3.63401 25.5 7.5V18.5C25.5 22.366 22.366 25.5 18.5 25.5H7.5C3.63401 25.5 0.5 22.366 0.5 18.5V7.5Z"/>
</symbol><symbol viewBox="0 0 100 100" id="music" xmlns="http://www.w3.org/2000/svg">
<path d="M70.3125 78.125C76.3531 78.125 81.25 73.2281 81.25 67.1875C81.25 61.1469 76.3531 56.25 70.3125 56.25C64.2719 56.25 59.375 61.1469 59.375 67.1875C59.375 73.2281 64.2719 78.125 70.3125 78.125Z" stroke-width="3" stroke-linecap="round" stroke-linejoin="round"/>
<path d="M20.3125 90.625C26.3531 90.625 31.25 85.7281 31.25 79.6875C31.25 73.6469 26.3531 68.75 20.3125 68.75C14.2719 68.75 9.375 73.6469 9.375 79.6875C9.375 85.7281 14.2719 90.625 20.3125 90.625Z" stroke-width="3" stroke-linecap="round" stroke-linejoin="round"/>
<path d="M81.25 31.25L31.25 43.75" stroke-width="3" stroke-linecap="round" stroke-linejoin="round"/>
<path d="M31.25 79.6875V25L81.25 12.5V67.1875" stroke-width="3" stroke-linecap="round" stroke-linejoin="round"/>
</symbol><symbol viewBox="0 0 100 100" id="paint-brush" xmlns="http://www.w3.org/2000/svg">
<path d="M7.8125 84.375H35.9375C39.9549 84.375 43.8821 83.1837 47.2225 80.9517C50.5629 78.7198 53.1664 75.5474 54.7038 71.8358C56.2412 68.1241 56.6435 64.04 55.8597 60.0997C55.0759 56.1595 53.1414 52.5402 50.3006 49.6994C47.4598 46.8586 43.8405 44.9241 39.9003 44.1403C35.96 43.3565 31.8759 43.7588 28.1642 45.2962C24.4526 46.8336 21.2802 49.4371 19.0483 52.7775C16.8163 56.1179 15.625 60.0451 15.625 64.0625C15.625 78.125 7.8125 84.375 7.8125 84.375Z" stroke-width="3" stroke-linecap="round" stroke-linejoin="round"/>
<path d="M43.9058 45.3906C51.4058 35.2734 70.4683 12.1094 87.8901 12.1094C87.8901 29.5312 64.7261 48.5938 54.6089 56.0938" stroke-width="3" stroke-linecap="round" stroke-linejoin="round"/>
<path d="M51.9531 35.3916C57.246 38.3787 61.6223 42.755 64.6094 48.0479" stroke-width="3" stroke-linecap="round" stroke-linejoin="round"/>
</symbol><symbol viewBox="0 0 100 100" id="planet" xmlns="http://www.w3.org/2000/svg">
<path d="M50 84.375C68.9848 84.375 84.375 68.9848 84.375 50C84.375 31.0152 68.9848 15.625 50 15.625C31.0152 15.625 15.625 31.0152 15.625 50C15.625 68.9848 31.0152 84.375 50 84.375Z" stroke-width="3" stroke-linecap="round" stroke-linejoin="round"/>
<path d="M71.9529 23.5557C82.7732 20.5869 90.8982 20.8604 93.3201 25.001C97.617 32.4619 81.7186 49.7276 57.8123 63.5166C33.9061 77.3057 11.0154 82.4619 6.6795 75.001C4.29669 70.8604 8.12481 63.6729 16.0936 55.7823" stroke-width="3" stroke-linecap="round" stroke-linejoin="round"/>
</symbol><symbol viewBox="0 0 100 100" id="swatches" xmlns="http://www.w3.org/2000/svg">
<path d="M14.3355 67.5774L23.7887 14.0227C23.8547 13.6185 24.0006 13.2315 24.2178 12.8843C24.4349 12.537 24.719 12.2365 25.0535 12.0002C25.388 11.7638 25.7662 11.5964 26.166 11.5078C26.5659 11.4191 26.9794 11.4109 27.3824 11.4837L48.9449 15.2727C49.7596 15.425 50.482 15.891 50.9568 16.5703C51.4316 17.2496 51.6209 18.0881 51.484 18.9055L41.9918 72.7727C41.3417 76.3999 39.2977 79.6285 36.2972 81.7676C33.2966 83.9066 29.578 84.7862 25.9371 84.218C18.1637 82.968 12.9684 75.3508 14.3355 67.5774Z" stroke-width="3" stroke-linecap="round" stroke-linejoin="round"/>
<path d="M46.21 48.7501L74.6865 38.3985C75.0737 38.2556 75.4853 38.1907 75.8977 38.2077C76.31 38.2247 76.7149 38.3232 77.089 38.4976C77.4631 38.6719 77.7989 38.9186 78.0771 39.2234C78.3553 39.5282 78.5704 39.8851 78.71 40.2735L86.21 60.8204C86.4866 61.5976 86.4447 62.4526 86.0935 63.199C85.7422 63.9454 85.1101 64.5226 84.335 64.8048L32.9287 83.5157" stroke-width="3" stroke-linecap="round" stroke-linejoin="round"/>
<path d="M85.9375 63.4766V81.25C85.9375 82.0788 85.6083 82.8737 85.0222 83.4597C84.4362 84.0458 83.6413 84.375 82.8125 84.375H28.125" stroke-width="3" stroke-linecap="round" stroke-linejoin="round"/>
<path d="M28.125 75C30.7138 75 32.8125 72.9013 32.8125 70.3125C32.8125 67.7237 30.7138 65.625 28.125 65.625C25.5362 65.625 23.4375 67.7237 23.4375 70.3125C23.4375 72.9013 25.5362 75 28.125 75Z"/>
</symbol><symbol viewBox="0 0 32 32" id="twitter" xmlns="http://www.w3.org/2000/svg">
<path d="M15.9997 11.0005C15.9997 8.25045 18.3122 5.96295 21.0622 6.00045C22.0253 6.01157 22.9646 6.3006 23.7673 6.8328C24.5701 7.365 25.202 8.11771 25.5872 9.00045H29.9997L25.9622 13.038C25.7016 17.0937 23.9063 20.8979 20.9412 23.6773C17.9761 26.4566 14.0638 28.0025 9.9997 28.0005C5.9997 28.0005 4.9997 26.5005 4.9997 26.5005C4.9997 26.5005 8.9997 25.0005 10.9997 22.0005C10.9997 22.0005 2.9997 18.0005 4.9997 7.00045C4.9997 7.00045 9.9997 12.0005 15.9997 13.0005V11.0005Z" stroke-width="2" stroke-linecap="round" stroke-linejoin="round"/>
</symbol><symbol viewBox="0 0 100 100" id="video" xmlns="http://www.w3.org/2000/svg">
<path d="M9.375 23.4375H59.375C62.6902 23.4375 65.8696 24.7545 68.2138 27.0987C70.558 29.4429 71.875 32.6223 71.875 35.9375V73.4375C71.875 74.2663 71.5458 75.0612 70.9597 75.6472C70.3737 76.2333 69.5788 76.5625 68.75 76.5625H18.75C15.4348 76.5625 12.2554 75.2455 9.91117 72.9013C7.56696 70.5571 6.25 67.3777 6.25 64.0625V26.5625C6.25 25.7337 6.57924 24.9388 7.16529 24.3528C7.75134 23.7667 8.5462 23.4375 9.375 23.4375V23.4375Z" stroke-width="3" stroke-linecap="round" stroke-linejoin="round"/>
<path d="M71.875 43.75L93.75 31.25V68.75L71.875 56.25" stroke-width="3" stroke-linecap="round" stroke-linejoin="round"/>
</symbol><symbol viewBox="0 0 100 100" id="wand" xmlns="http://www.w3.org/2000/svg">
<path d="M84.375 50V68.75" stroke-width="3" stroke-linecap="round" stroke-linejoin="round"/>
<path d="M75 59.375H93.75" stroke-width="3" stroke-linecap="round" stroke-linejoin="round"/>
<path d="M32.8125 15.625V31.25" stroke-width="3" stroke-linecap="round" stroke-linejoin="round"/>
<path d="M25 23.4375H40.625" stroke-width="3" stroke-linecap="round" stroke-linejoin="round"/>
<path d="M65.625 71.875V84.375" stroke-width="3" stroke-linecap="round" stroke-linejoin="round"/>
<path d="M59.375 78.125H71.875" stroke-width="3" stroke-linecap="round" stroke-linejoin="round"/>
<path d="M72.8218 14.6996L14.7341 72.7874C13.5137 74.0078 13.5137 75.9864 14.7341 77.2068L22.8134 85.286C24.0338 86.5064 26.0124 86.5064 27.2328 85.286L85.3205 27.1983C86.5409 25.9779 86.5409 23.9993 85.3205 22.7789L77.2413 14.6996C76.0209 13.4793 74.0422 13.4793 72.8218 14.6996Z" stroke-width="3" stroke-linecap="round" stroke-linejoin="round"/>
<path d="M56.25 31.25L68.75 43.75" stroke-width="3" stroke-linecap="round" stroke-linejoin="round"/>
</symbol><symbol viewBox="0 0 32 32" id="youtube" xmlns="http://www.w3.org/2000/svg">
<path fill-rule="evenodd" clip-rule="evenodd" d="M13.5281 11.1183C13.8533 10.9443 14.2478 10.9634 14.5547 11.168L20.5547 15.168C20.8329 15.3534 21 15.6656 21 16C21 16.3344 20.8329 16.6466 20.5547 16.8321L14.5547 20.8321C14.2478 21.0366 13.8533 21.0557 13.5281 20.8817C13.203 20.7077 13 20.3688 13 20V12C13 11.6312 13.203 11.2923 13.5281 11.1183ZM15 13.8685V18.1315L18.1972 16L15 13.8685Z"/>
<path fill-rule="evenodd" clip-rule="evenodd" d="M15.9985 5.04985L15.9816 5.0498L15.9188 5.04983C15.8643 5.04996 15.785 5.05035 15.6831 5.05143C15.4794 5.05359 15.1856 5.0585 14.8206 5.06945C14.0912 5.09135 13.0746 5.13749 11.9237 5.23466C9.64733 5.42685 6.74928 5.82571 4.51808 6.67823L4.50338 6.68398C4.06511 6.85941 3.6742 7.13539 3.36218 7.48966C3.05016 7.84393 2.82577 8.26657 2.70711 8.7235L2.70614 8.72726C2.39473 9.94582 2 12.2055 2 15.9999C2 19.7942 2.39473 22.0539 2.70614 23.2725L2.70711 23.2762C2.82577 23.7332 3.05016 24.1558 3.36218 24.5101C3.6742 24.8643 4.06511 25.1403 4.50338 25.3157L4.51808 25.3215C6.74928 26.174 9.64733 26.5729 11.9237 26.7651C13.0746 26.8622 14.0912 26.9084 14.8206 26.9303C15.1856 26.9412 15.4794 26.9461 15.6831 26.9483C15.785 26.9494 15.8643 26.9498 15.9188 26.9499L15.9816 26.9499L15.9985 26.9499H16.0015L16.0184 26.9499L16.0812 26.9499C16.1357 26.9498 16.215 26.9494 16.3169 26.9483C16.5206 26.9461 16.8144 26.9412 17.1794 26.9303C17.9088 26.9084 18.9254 26.8622 20.0763 26.7651C22.3527 26.5729 25.2507 26.174 27.4819 25.3215L27.4966 25.3157C27.9349 25.1403 28.3258 24.8643 28.6378 24.5101C28.9498 24.1558 29.1742 23.7332 29.2929 23.2762L29.2939 23.2725C29.6053 22.0539 30 19.7942 30 15.9999C30 12.2055 29.6053 9.94582 29.2939 8.72726L29.2929 8.7235C29.1742 8.26657 28.9498 7.84393 28.6378 7.48966C28.3258 7.13539 27.9349 6.85941 27.4966 6.68398L27.4819 6.67823C25.2507 5.82571 22.3527 5.42685 20.0763 5.23466C18.9254 5.13749 17.9088 5.09135 17.1794 5.06945C16.8144 5.0585 16.5206 5.05359 16.3169 5.05143C16.215 5.05035 16.1357 5.04996 16.0812 5.04983L16.0184 5.0498L16.0015 5.04985H15.9985ZM15.9947 24.9499L16.0054 24.9498L16.0086 24.9499L16.0217 24.9499L16.0767 24.9499C16.1259 24.9498 16.1996 24.9494 16.2957 24.9484C16.4877 24.9464 16.7686 24.9417 17.1194 24.9312C17.8216 24.9101 18.8011 24.8656 19.9081 24.7722C22.1441 24.5834 24.8041 24.2018 26.7596 23.4565C26.9044 23.3974 27.0336 23.3056 27.1369 23.1882C27.2414 23.0695 27.3167 22.928 27.3567 22.7751C27.6203 21.7429 28 19.6529 28 15.9999C28 12.3468 27.6203 10.2568 27.3567 9.22464C27.3167 9.07168 27.2414 8.9302 27.1369 8.81154C27.0336 8.69415 26.9044 8.60233 26.7596 8.54326C24.8041 7.79791 22.1441 7.41635 19.9081 7.22757C18.8011 7.13411 17.8216 7.08963 17.1194 7.06855C16.7686 7.05802 16.4877 7.05336 16.2957 7.05132C16.1996 7.0503 16.1259 7.04994 16.0767 7.04983L16.0217 7.0498L16.0086 7.04983L16.0058 7.04985L15.9946 7.04991L15.9914 7.04983L15.9783 7.0498L15.9233 7.04983C15.8741 7.04994 15.8004 7.0503 15.7043 7.05132C15.5123 7.05336 15.2314 7.05802 14.8806 7.06855C14.1784 7.08963 13.1989 7.13411 12.0919 7.22757C9.8559 7.41635 7.1959 7.79791 5.24039 8.54327C5.09561 8.60234 4.96645 8.69415 4.86306 8.81154C4.75855 8.9302 4.6833 9.07168 4.64331 9.22464C4.37974 10.2569 4 12.3468 4 15.9999C4 19.6529 4.37973 21.7429 4.6433 22.7751C4.68329 22.928 4.75855 23.0695 4.86306 23.1882C4.96645 23.3056 5.09561 23.3974 5.24038 23.4565C7.1959 24.2018 9.8559 24.5834 12.0919 24.7722C13.1989 24.8656 14.1784 24.9101 14.8806 24.9312C15.2314 24.9417 15.5123 24.9464 15.7043 24.9484C15.8004 24.9494 15.8741 24.9498 15.9233 24.9499L15.9783 24.9499L15.9914 24.9499L15.9947 24.9499Z"/>
</symbol></svg>